<mxfile host="app.diagrams.net" modified="2024-04-28T20:53:10.949Z" agent="Mozilla/5.0 (Windows NT 10.0; Win64; x64; rv:124.0) Gecko/20100101 Firefox/124.0" version="24.3.1" etag="2poD6Tf3LCrysYrw7eCn" type="github">
  <diagram name="Page-1" id="e0pJ4Nk50ndBTgcbHBNI">
    <mxGraphModel>
      <root>
        <mxCell id="0" />
        <mxCell id="1" parent="0" />
      </root>
    </mxGraphModel>
  </diagram>
</mxfile>
